<svg width="471" height="162" viewBox="0 0 471 162" fill="none" xmlns="http://www.w3.org/2000/svg">
<g clip-path="url(#clip0_50_2)">
<path d="M186 159.2C181.7 155.9 182.7 149.6 182.7 148.4C182.7 146.8 182.8 145.1 182.7 143.5C182.6 141.9 182.5 140.4 182.8 138.8C182.9 138.3 182.9 137.7 182.9 137.2C182.9 132.4 183.5 127.7 184.2 122.9C184.8 118.1 185.4 113.2 186.1 108.4C186.7 104.4 187.5 100.5 188.1 96.5C188.3 95.4 188.4 94.2 188.4 93.1C188.4 91.8 188.6 90.6 189.1 89.3C189.5 88.4 189.8 87.5 190 86.5C190.1 86.1 190.1 85.6 190 85.2C189.9 84.6 189.3 84.4 188.8 84.7C188.1 85.2 187.4 85.6 186.8 86.1C185 87.6 182.9 88 180.7 87.6C177.4 87.1 174.2 86.8 170.8 86.9C169.2 87 167.5 86.9 165.8 86.9C165.3 86.9 164.7 86.9 164.2 87C163.6 87.1 163.2 87.6 163.2 88.3C163.2 88.6 163.2 88.9 163.3 89.2C163.4 89.6 163.5 89.9 163.6 90.3C164.9 93.9 163.7 96.7 160.9 99.1C159.9 100 158.8 100.7 157.5 101.3C155.3 102.4 153.2 101.1 153.2 98.8C153.3 96.2 152.7 93.7 152.3 91.2C152.3 90.9 152.2 90.6 152.1 90.3C151.7 88.8 150.9 88.1 149.3 88.2C147.7 88.3 146.2 88.5 144.6 88.8C141.6 89.3 138.5 89.8 135.5 90.2C133.8 90.4 132.2 90.6 130.5 90.8C129.8 90.9 128.3 91.1 127.4 91.3C123.3 92.2 119.1 91.9 115 91.9C112.6 91.9 110.7 90.8 109.2 88.9C108.9 88.6 108.7 88.1 108.4 87.8C107.9 87.2 107.3 87 106.6 87.3C102.6 88.8 98.4 89.7 94.4 91.2C92.2 92.1 89.9 92.8 87.9 94.2C86.6 95.2 85.1 95.6 83.4 95.5C81.3 95.4 79.5 94.1 78.8 92.1C78.2 90.3 77.9 88.5 78.3 86.6C78.7 84.8 79 83.1 79.5 81.3C80.1 79.2 79 78.5 77.3 78.9C73.4 79.8 69.3 80.2 65.7 82.3C65 82.7 64 83 63.1 83.1C61.4 83.2 60.5 82.2 60.4 80.5C60.3 79.2 60.8 78.1 61.5 77.1C62.4 75.9 63.4 74.8 64.3 73.6C65.6 72 67.4 71 69.4 70.4C71 70 72.6 69.5 74.2 69.3C79.6 68.5 85 67.8 90.5 67.1C90.9 67 91.4 67 91.8 67C94.7 67 95.6 69.2 95.3 71.2C95.2 71.9 94.9 72.5 94.7 73.1C94.2 74.4 94.2 75.5 95 76.7C95.4 77.2 95.5 77.8 95.8 78.3C96.4 79.5 96.8 79.7 98.3 79.5C98.5 79.5 98.8 79.4 99 79.3C102 78.4 105 77.4 108 76.5C109.7 76 110.9 74.9 111.8 73.5C113.8 70.5 116.5 68.3 119.4 66.3C121.7 64.7 124.3 64.5 126.9 65C127.6 65.1 127.9 65.6 128.2 66.1C128.9 67.5 129.6 68.9 130.4 70.3C131 71.6 131 73.1 130.3 74.3C129.7 75.3 129 76.2 128.4 77.2C128 77.7 127.5 78.2 127.1 78.8C126.4 79.8 126.7 80.4 127.8 80.5C128.8 80.5 129.7 80.4 130.7 80.4C131.4 80.3 132 80.2 132.7 80.1C135.2 79.8 137.6 79.5 140.1 79.2C142.7 78.9 145.3 78.5 147.9 78.1C149.4 77.9 150.3 77 150.6 75.5C151 73.7 151.3 72 151.6 70.2C151.8 69.3 152.1 68.5 152.4 67.6C153.4 64.6 155.4 62.2 157.4 60C160.1 57 163.2 54.3 166.3 51.8C168.3 50.2 170.1 48.4 172 46.7C173.7 45.1 175.4 43.6 177.5 42.4C178.2 42 178.7 41.3 179.4 40.8C180.5 39.8 181.7 38.8 182.9 37.9C186.3 35.5 189.4 32.8 192.2 29.8C192.6 29.4 193 28.8 193.3 28.3C194.2 27 195.3 26.4 196.8 26.4C197.9 26.4 199 26.2 200.2 26.1C200.3 26.1 200.5 26.1 200.6 26.1C203 26 203.9 26.7 204 29.1C204.1 31 204.1 32.8 204.2 34.7C204.3 35.8 204.4 36.9 204.5 38C204.6 39.2 204.7 40.4 204.7 41.6C204.7 44.1 204.7 46.6 204.6 49C204.5 53 204.4 57.1 204.1 61.1C203.8 64.7 203.2 68.2 202.7 71.8C202.5 73.2 202.4 74.6 202.3 76C202.3 76.4 202.4 76.9 202.6 77.3C202.8 77.6 203.2 77.8 203.5 77.7C203.9 77.7 204.3 77.4 204.7 77.2C207 76 209.3 74.7 211.6 73.5C212.1 73.3 212.5 72.9 212.9 72.6C213.6 72.1 214.3 71.7 214.9 71.2C215.9 70.6 216.9 70 217.8 69.3C218.7 68.6 219.9 68.2 221.1 68.2C222.3 68.2 223.5 68.1 224.6 68.1C226.3 68.1 227.8 69.2 228.3 70.7C229 72.7 229.5 74.7 230.2 76.7C230.6 77.8 231.1 78.9 231.7 80C232.1 80.8 233.1 81.2 234 81C235.2 80.6 236.4 80.1 237.6 79.6C241.2 78 244.8 76.6 248.6 75.6C249.6 75.3 250.6 74.9 251.6 74.6C254.3 73.7 257 72.9 259.7 72C261 71.6 262.3 71.1 263.4 70.4C264.8 69.6 266.2 69.4 267.8 69.7C268.7 69.8 269.5 69.9 270.4 70C271.9 70.2 272.8 71.1 273.3 72.5C273.7 73.6 273.9 74.9 273.6 76C273 78.3 273 80.6 273.3 82.9C273.4 83.5 273.3 84.1 273.3 84.7C273.4 86.1 272.8 87.4 271.9 88.3C271.4 88.8 270.9 89.4 270.4 90C269.3 91.4 267.9 92.3 266.2 93C265.3 93.4 264.3 93.4 263.3 93.3C261.4 93 260.1 91.6 259.9 89.6C259.8 88.4 260 87.2 260 86C260 85.3 260.1 84.6 260 84C259.9 83.2 259.2 82.8 258.3 82.9C258.2 82.9 258 83 257.9 83C253.9 84.4 249.9 85.7 246 87.1C243.9 87.9 241.9 89 239.8 89.7C237.4 90.5 235.3 91.8 233.3 93.2C232.1 94 230.8 94.6 229.5 95.1C228.9 95.3 228.3 95.4 227.7 95.5C226.3 95.7 225.2 95.2 224.3 94.2C223 92.7 222 91.1 221.1 89.3C220.3 87.5 219.6 85.7 218.9 83.9C218.7 83.4 218.6 82.9 218.4 82.4C217.9 81.3 217.1 80.9 216 81.4C215.1 81.8 214.2 82.2 213.4 82.7C211 84 208.5 85.4 206.1 86.8C204.5 87.7 202.9 88.8 201.4 89.8C200.3 90.5 199.8 91.7 199.7 93C199.6 94 199.5 95 199.3 96C198.8 98.5 198.6 101 198.1 103.5C197.3 107.3 197 111.2 196.6 115.1C196.3 117.8 196.1 120.5 195.8 123.2C195.8 123.5 195.7 123.8 195.7 124.1C195.5 128.1 195.3 132.2 195.2 136.2C195.1 141.4 195.1 146.6 195.1 151.7C195.1 152.4 195 153.2 194.9 153.9C194.9 154.9 194.8 156 194.8 157C194.9 158.9 194.9 158.4 194.8 160.3C194.7 162 189.7 160.2 189.3 160.2L186.1 159.1M194.1 47.3H194C194 46.5 194 45.6 194 44.8C194 44 193.9 43.1 193.7 42.3C193.4 40.9 192.6 40.7 191.4 41.5C191 41.8 190.7 42.1 190.4 42.4C187.9 45.1 184.8 46.9 182 49.2C180 50.9 177.8 52.3 175.8 54C173.9 55.5 172.2 57.1 170.4 58.8C168.5 60.5 166.6 62.3 164.9 64.1C162.2 67 161.1 70.5 161.2 74.4C161.3 76.1 161.8 76.6 163.4 76.6C164.1 76.6 164.7 76.5 165.4 76.5C167.2 76.4 169 76.2 170.8 76.1C171.8 76 172.9 76.1 173.9 76C178 75.5 182.1 75.7 186.3 75.7C187.2 75.7 188.1 75.9 188.9 76.1C190.9 76.6 191.2 76.5 191.5 74.4C191.5 74.2 191.6 74 191.6 73.7C192 70.6 192.3 67.5 192.7 64.3C193.2 60.7 193.5 57 193.5 53.3C193.7 51.3 194 49.3 194.1 47.3Z" fill="white"/>
<path d="M17.9 42.5C17.8 44.2 17.8 45.9 17.7 47.7C17.7 49.9 17.7 52.2 17.6 54.4C17.4 60.2 17.1 65.9 16.9 71.7C16.9 72.4 16.8 73.2 16.9 73.9C17 74.7 17.6 75.1 18.4 75C18.9 74.9 19.4 74.8 19.9 74.6C24.3 73.2 28.6 71.8 33 70.4C36.7 69.2 40.4 68 44.2 66.9C46.4 66.2 48.7 65.6 50.9 65.1C53.1 64.6 55.3 64.2 57.5 64C60 63.7 61.2 64.7 61.3 67.2C61.4 68.3 61.3 69.5 61.1 70.6C60.8 72.4 60.3 74.3 59.9 76.1C59.8 76.7 59.7 77.3 59.7 77.9C59.9 80.6 59.2 83.1 57.8 85.4C57.4 86 57.2 86.6 56.8 87.2C56.5 87.7 56.3 88.3 56 88.8C55 90.3 53.4 91 52.1 92C51 92.7 49.6 92.3 48.4 91.9C46.6 91.3 44.8 90.7 43.2 89.9C41.1 88.8 39 87.6 37 86.2C35.8 85.3 35 84 34.1 82.8C34 82.6 33.9 82.4 33.8 82.2C32.9 80.6 32.7 80.5 31 81.1C28.6 81.9 26.2 82.7 23.8 83.6C22.1 84.2 20.4 84.8 18.7 85.4C17.2 85.9 16.3 86.9 16.2 88.6C16.2 89.2 16 89.8 16 90.4C15.8 94.2 15.5 98 15.4 101.9C15.3 106.1 14.9 110.3 14.5 114.5C14.2 117.9 14.2 121.4 14 124.8C13.7 128.5 13.4 132.3 13.1 136C13 137.6 12.9 139.1 12.7 140.7C12.5 143.2 12.3 145.8 12.2 148.3C12.1 150.5 12 152.7 12.1 154.8C12.2 156.9 11.6 158.6 9.99999 160C9.89999 160.1 9.79999 160.2 9.69999 160.3C8.09999 162.4 5.89999 162.7 3.49999 162.6C2.39999 162.6 1.69999 162.1 1.09999 161.1C0.499986 160 -1.40965e-05 158.8 -1.40965e-05 157.5C-1.40965e-05 155.1 -0.200014 152.7 0.299986 150.3C0.399986 149.9 0.399986 149.6 0.399986 149.2C0.699986 145.4 0.899986 141.6 1.19999 137.8C1.49999 134.1 1.79999 130.5 2.09999 126.8C2.19999 125.9 2.29999 125 2.39999 124.1C2.59999 122 2.89999 119.9 2.99999 117.8C3.09999 113.9 3.59999 110 4.09999 106.2C4.19999 105.6 4.29999 105 4.29999 104.4C4.59999 99 4.89999 93.6 5.29999 88.2C5.59999 84.2 5.99999 80.1 6.29999 76.1C6.59999 72.5 6.79999 68.9 7.09999 65.3C7.69999 58.4 7.59999 51.5 7.49999 44.6C7.49999 43.6 7.49999 42.5 7.59999 41.5C7.79999 39.4 8.69999 37.8 10.7 36.9C11.8 36.3 12.9 35.7 14.3 35.6C16.2 35.5 17.5 36.5 17.6 38.4C17.7 39.7 17.6 41.1 17.6 42.4C17.7 42.5 17.8 42.5 17.9 42.5Z" fill="white"/>
<path d="M330.9 76.1C330.9 75.6 330.9 75 330.9 74.3C330.9 72 331.9 70.1 333.7 68.6C334.3 68.1 335 67.9 335.8 67.9C336.9 68 338 68.1 339.1 68.2C341.1 68.4 342.6 69.7 342.9 71.8C343 72.5 343 73.3 343.1 74C343.3 75.6 343.5 77.3 343.7 78.9C343.7 79.1 343.8 79.3 343.9 79.6C344.3 80.6 345 81 346 80.8C346.7 80.6 347.3 80.5 347.9 80.2C350.7 79.1 353.4 77.9 356.2 76.8C357.1 76.4 357.8 75.9 358.1 75C358.5 74 359.1 73 359.3 71.9C359.6 70.3 360.6 69 361.7 68C362.9 67 364.2 66.1 365.6 65.4C367.1 64.6 368.7 64.4 370.4 64.7C371.7 64.9 373.1 65 374.4 64.9C375.9 64.9 376.9 65.4 378 66.3C380.3 68.1 380.6 70.3 379.8 73C379.6 73.5 379.4 74 379.3 74.5C379.1 75.2 379.5 75.7 380.2 75.7C380.9 75.7 381.6 75.7 382.2 75.6C383.9 75.3 385.6 74.9 387.2 74.5C390.8 73.6 394.2 72.4 397.6 70.9C399.8 69.9 402 69 404.2 68C405.2 67.5 406.2 67 407.2 66.4C407.7 66.1 408.2 65.7 408.7 65.4C410.3 64.4 411.9 64.1 413.6 64.9C414 65.1 414.5 65.2 414.9 65.2C416.3 65.4 417.5 65.9 418.4 67C419.2 68 420.4 68.3 421.6 68.5C426.3 69.2 430.9 70 435.6 70.7C439.9 71.4 443.9 72.8 447.6 75.1C449.5 76.3 451.5 77.4 453 79.2C454.7 81.2 454.5 84 452.4 85.8C450.1 87.7 447.5 89 444.6 89.5C443.4 89.7 442.3 90.2 441.1 90.2C439.2 90.2 437.4 89.7 435.7 88.8C435.1 88.5 434.5 88.1 433.9 87.8C433 87.3 432.6 86.6 432.6 85.6C432.6 84.5 432.8 83.6 433.5 82.6C434 81.8 433.8 81.1 432.9 80.8C432.1 80.5 431.3 80.4 430.5 80.3C429.1 80.1 427.7 79.8 426.3 79.6C424.4 79.3 422.4 79.1 420.5 78.9C417.4 78.7 414.4 78.1 411.6 76.8C410.2 76.1 408.9 76.2 407.5 76.8C405 77.9 402.5 78.8 400 79.8C398.1 80.6 396.3 81.3 394.4 82C393.6 82.3 392.7 82.5 391.8 82.8C387.9 84 384 84.9 380 85.4C377.3 85.7 374.7 86 371.9 85.7C369.2 85.4 366.5 85.1 363.9 84.5C362.7 84.3 361.7 84.4 360.6 84.9C356.1 86.8 351.5 88.7 346.9 90.7C346 91.1 345.1 91.6 344.4 92.2C343.4 93 342.3 93.6 341 94C340.7 94.1 340.4 94.1 340.2 94.3C338.6 95.3 336.9 95 335.2 94.6C333.8 94.3 332.8 93.4 332.3 92C332.1 91.3 331.9 90.5 331.9 89.8C331.6 86.6 331.4 83.4 331.1 80.2C331.2 78.9 331 77.6 330.9 76.1Z" fill="white"/>
<path d="M310.1 78.4C309.3 79.2 308.7 79.6 308.2 80.2C306.8 81.6 305.2 82.7 303.5 83.7C302.1 84.5 300.8 85.3 299.4 86.1C297.4 87.2 295.3 88 293.1 88.5C292 88.7 291 89.2 289.9 89.5C289.4 89.7 288.9 89.9 288.4 90C284.9 90.9 282 88.8 281.8 85.2C281.6 81.6 283 78.7 286.2 76.8C287.7 75.9 289.1 75.5 290.9 75.6C291.9 75.7 293 75.3 294 75.1C295.2 74.8 296.3 74.6 297.5 75.1C298.6 75.6 299.6 75.2 300.6 74.4C303.3 72.3 304.6 69.4 304.8 66.1C305.1 62.6 305.3 59.1 305.6 55.6C305.8 53.6 306.2 51.6 306.5 49.6C307.2 45.8 307.9 42.1 308.6 38.3C309.3 34.8 309.8 31.4 309.7 27.8C309.6 25.6 310.5 23.9 311.7 22.2C312.3 21.3 313.2 20.9 314.2 21.1C315.4 21.3 316.6 21.4 317.8 21.6C318.2 21.7 318.5 21.8 318.9 21.9C319.9 22.3 320.5 23 320.5 24.1C320.5 24.5 320.5 25 320.4 25.4C320.1 27.2 320.2 29 320.6 30.8C321 32.5 321.1 34.2 320.8 35.9C320.7 36.6 320.6 37.4 320.7 38.1C320.9 41.2 321.2 44.2 321.3 47.3C321.4 48.1 321.2 48.9 321.2 49.8C321.2 51 321.1 52.2 321.2 53.4C321.4 56.1 321.7 58.8 322 61.4C322.3 64.1 322.7 66.8 323.1 69.4C323.4 71.5 323.7 73.5 323.7 75.7C323.7 77.1 323.9 78.5 324.3 79.9C324.5 80.7 324.6 81.5 324.6 82.3C324.7 83.8 324.1 85.1 322.9 86.1C322.2 86.7 321.4 87.4 320.6 87.9C320.2 88.2 319.7 88.4 319.2 88.6C318.4 88.9 317.5 89.1 316.7 89.4C315.2 89.9 313.9 89.6 312.6 89C311.7 88.6 311.1 87.7 311 86.7C310.9 85.5 310.9 84.3 310.8 83.1C310.8 82.1 310.8 81.2 310.7 80.2C310.8 79.6 310.5 79.2 310.1 78.4Z" fill="white"/>
<path d="M394 41.3C393.9 42.8 393.5 43.9 392.3 44.7C391.2 45.4 390.5 46.4 389.9 47.6C389.6 48.3 389.1 48.9 388.7 49.5C388 50.4 387.3 51.3 386.4 52C385.5 52.8 384.4 53.5 383.3 54.2C383 54.4 382.6 54.4 382.2 54.4C381.8 54.4 381.5 54.2 381.1 54.1C379.2 53.6 378.2 52.2 378.6 50.3C378.7 49.5 379 48.7 379.4 48C380.6 45.9 381.7 43.8 383.1 41.8C383.9 40.6 385.1 39.6 386.5 38.9C387.5 38.4 388.5 38.2 389.4 39C390 39.5 390.7 39.6 391.5 39.4C391.7 39.3 391.9 39.3 392.2 39.3C393.1 39.2 393.8 39.7 393.9 40.7C394 40.9 394 41.2 394 41.3Z" fill="white"/>
<path d="M8.29999 8.30003C8.19999 5.80003 8.99999 4.00003 10.7 2.70003C11.5 2.10003 12.3 1.60003 13.1 1.00003C14.5 0.100026 16 -0.0999744 17.6 2.5617e-05C19.5 0.200026 20.6 1.50003 20.3 3.40003C20.1 4.60003 19.7 5.90003 19.2 7.10003C18.8 8.10003 18.3 9.00003 17.8 9.90003C17.5 10.5 17.1 11 16.6 11.5C15.9 12.3 15.1 13 14.4 13.7C12.4 15.6 9.79999 15 8.89999 12.4C8.79999 12 8.69999 11.7 8.59999 11.3C8.49999 10.2 8.39999 9.10003 8.29999 8.30003Z" fill="white"/>
<path d="M465 92.6C461.5 92.5 460.4 90.5 461.3 87.4C461.8 85.8 462.9 84.7 464.2 83.8C464.8 83.4 465.3 83.4 465.9 83.8C466.5 84.3 467.2 84.4 468 84.6C468.7 84.8 469.4 85.1 470 85.5C471 86.2 471.3 87.3 470.6 88.2C469.4 89.9 467.8 91.3 465.9 92.3C465.6 92.6 465.2 92.6 465 92.6Z" fill="white"/>
</g>
<defs>
<clipPath id="clip0_50_2">
<rect width="471" height="161.5" fill="white"/>
</clipPath>
</defs>
</svg>
