<svg xmlns="http://www.w3.org/2000/svg" version="1.1" xmlns:xlink="http://www.w3.org/1999/xlink" width="1000" height="1000"><style>
    #light-icon {
      display: inline;
    }
    #dark-icon {
      display: none;
    }

    @media (prefers-color-scheme: dark) {
      #light-icon {
        display: none;
      }
      #dark-icon {
        display: inline;
      }
    }
  </style><g id="light-icon"><svg xmlns="http://www.w3.org/2000/svg" version="1.1" xmlns:xlink="http://www.w3.org/1999/xlink" width="1000" height="1000"><g><g transform="matrix(1.953125,0,0,1.953125,0,0)"><svg xmlns="http://www.w3.org/2000/svg" version="1.1" xmlns:xlink="http://www.w3.org/1999/xlink" width="512" height="512"><svg width="512" height="512" viewBox="0 0 512 512" fill="none" xmlns="http://www.w3.org/2000/svg">
<rect width="512" height="512" rx="48" fill="#222222"></rect>
<path d="M113.458 137.65C118.42 137.39 121.816 139.993 122.077 144.934C122.338 148.315 122.077 151.957 122.077 155.338C122.338 155.597 122.6 155.597 122.861 155.597C122.599 160.018 122.599 164.44 122.338 169.122C122.338 174.843 122.339 180.826 122.077 186.548C121.555 201.632 120.771 216.457 120.248 231.542C120.248 233.362 119.987 235.444 120.248 237.264C120.51 239.344 122.077 240.384 124.167 240.124C125.473 239.864 126.779 239.603 128.085 239.083C139.579 235.441 150.813 231.802 162.307 228.161C171.971 225.04 181.636 221.919 191.561 219.058C197.308 217.238 203.317 215.675 209.064 214.375C214.811 213.074 220.559 212.035 226.306 211.515C232.836 210.735 235.971 213.336 236.232 219.838C236.493 222.698 236.231 225.819 235.709 228.679C234.925 233.361 233.619 238.303 232.574 242.984C232.312 244.544 232.051 246.107 232.051 247.667C232.573 254.689 230.746 261.192 227.089 267.174C226.044 268.734 225.522 270.294 224.477 271.855C223.693 273.155 223.171 274.715 222.388 276.015C219.775 279.916 215.595 281.737 212.199 284.338C209.325 286.159 205.668 285.12 202.533 284.079C197.831 282.519 193.129 280.958 188.949 278.878C183.464 276.017 177.979 272.895 172.755 269.254C169.621 266.913 167.53 263.531 165.179 260.41L164.396 258.851C162.045 254.69 161.522 254.428 157.082 255.988C150.813 258.069 144.543 260.15 138.274 262.49C133.833 264.051 129.391 265.613 124.95 267.174C121.032 268.474 118.681 271.074 118.419 275.494C118.419 277.055 117.899 278.617 117.899 280.178C117.376 290.061 116.591 299.945 116.33 310.088C116.069 321.011 115.025 331.934 113.981 342.857C113.197 351.7 113.197 360.803 112.674 369.645C111.891 379.269 111.106 389.152 110.322 398.775C110.061 402.937 109.799 406.839 109.277 411C108.754 417.502 108.232 424.263 107.97 430.765C107.709 436.487 107.449 442.209 107.71 447.671C107.971 453.132 106.405 457.554 102.226 461.196C101.964 461.456 101.701 461.715 101.44 461.975C97.2606 467.437 91.515 468.217 85.2462 467.957C82.3727 467.957 80.5432 466.656 78.9758 464.055C77.4087 461.195 76.1034 458.074 76.1034 454.693C76.1034 448.451 75.5805 442.209 76.8866 435.967C77.1476 434.927 77.1468 434.147 77.1468 433.107C77.9304 423.224 78.4524 413.34 79.236 403.456C80.0197 393.833 80.8044 384.47 81.588 374.847C81.8493 372.506 82.11 370.165 82.3712 367.824C82.8936 362.363 83.6789 356.901 83.9401 351.44C84.2013 341.297 85.5064 331.154 86.8125 321.271C87.0736 319.711 87.3353 318.15 87.3354 316.59C88.1191 302.545 88.9028 288.5 89.9476 274.456C90.7313 264.052 91.7762 253.387 92.5599 242.984C93.3435 233.621 93.8655 224.258 94.6491 214.895C96.2164 196.95 95.9563 179.003 95.695 161.057C95.695 158.457 95.6941 155.596 95.9552 152.996C96.4776 147.534 98.8285 143.374 104.052 141.033C106.926 139.472 109.8 137.91 113.458 137.65ZM388.001 217.496C394.009 213.335 400.801 212.815 407.592 214.116C409.42 214.376 410.204 215.675 410.988 216.975C412.816 220.617 414.645 224.259 416.735 227.9C418.302 231.28 418.303 235.182 416.475 238.303C414.907 240.904 413.078 243.246 411.51 245.846C410.466 247.146 409.16 248.447 408.115 250.007C406.287 252.608 407.071 254.169 409.944 254.429C412.556 254.429 414.906 254.17 417.518 254.17C419.346 253.91 420.914 253.647 422.742 253.387C426.73 252.911 430.621 252.436 434.533 251.96C434.174 255.538 433.977 259.443 433.977 263.532C433.977 269.146 434.348 274.415 435 278.966C433.344 279.204 431.696 279.44 430.059 279.657C425.618 280.177 421.438 280.697 416.998 281.217C415.169 281.477 411.249 281.997 408.898 282.517C398.189 284.858 387.218 284.079 376.508 284.079C370.239 284.079 365.274 281.218 361.355 276.277C360.572 275.496 360.05 274.195 359.266 273.414C357.96 271.854 356.393 271.334 354.565 272.114C344.116 276.015 333.144 278.357 322.695 282.258C316.948 284.599 310.94 286.42 305.716 290.061C302.32 292.661 298.401 293.701 293.961 293.441C288.475 293.181 283.774 289.799 281.946 284.597C280.378 279.916 279.595 275.234 280.639 270.293C281.684 265.612 282.469 261.19 283.775 256.509C285.341 251.048 282.468 249.228 278.027 250.268C267.84 252.609 257.128 253.648 247.724 259.11C245.896 260.15 243.284 260.93 240.933 261.19C236.493 261.45 234.141 258.85 233.88 254.429C233.619 251.048 234.926 248.186 236.755 245.585C239.106 242.464 241.718 239.602 244.068 236.482C247.464 232.321 252.166 229.722 257.39 228.161C261.569 227.121 265.749 225.819 269.928 225.299C284.034 223.218 298.142 221.397 312.509 219.576C313.554 219.317 314.86 219.317 315.904 219.317C323.479 219.318 325.831 225.04 325.047 230.241C324.786 232.061 324.001 233.621 323.478 235.181C322.172 238.562 322.174 241.425 324.264 244.546C325.308 245.846 325.57 247.406 326.353 248.706C327.921 251.827 328.965 252.348 332.884 251.828C333.406 251.828 334.191 251.567 334.713 251.307C342.549 248.966 350.387 246.366 358.223 244.025C362.663 242.725 365.798 239.864 368.149 236.223C373.373 228.42 380.425 222.698 388.001 217.496ZM110.322 47.6617C113.98 45.321 117.898 44.8008 122.077 45.0609C127.041 45.5811 129.915 48.9632 129.131 53.9047C128.608 57.0253 127.562 60.4053 126.256 63.5258C125.211 66.1267 123.906 68.4695 122.6 70.8102C121.817 72.3704 120.771 73.6703 119.465 74.9705C117.637 77.0512 115.546 78.8723 113.718 80.6929C108.494 85.6337 101.702 84.0736 99.3506 77.3123C99.0894 76.272 98.8287 75.4902 98.5675 74.4499C98.3062 71.5891 98.0455 68.7279 97.7843 66.6473C97.5232 60.1459 99.612 55.4646 104.052 52.0836C106.142 50.5231 108.233 49.2222 110.322 47.6617Z" fill="white"></path>
</svg></svg></g></g></svg></g><g id="dark-icon"><svg xmlns="http://www.w3.org/2000/svg" version="1.1" xmlns:xlink="http://www.w3.org/1999/xlink" width="1000" height="1000"><g><g transform="matrix(1.953125,0,0,1.953125,0,0)" style="filter: invert(100%)"><svg xmlns="http://www.w3.org/2000/svg" version="1.1" xmlns:xlink="http://www.w3.org/1999/xlink" width="512" height="512"><svg width="512" height="512" viewBox="0 0 512 512" fill="none" xmlns="http://www.w3.org/2000/svg">
<rect width="512" height="512" rx="88" fill="#222222"></rect>
<path d="M113.458 137.65C118.42 137.39 121.816 139.993 122.077 144.934C122.338 148.315 122.077 151.957 122.077 155.338C122.338 155.597 122.6 155.597 122.861 155.597C122.599 160.018 122.599 164.44 122.338 169.122C122.338 174.843 122.339 180.826 122.077 186.548C121.555 201.632 120.771 216.457 120.248 231.542C120.248 233.362 119.987 235.444 120.248 237.264C120.51 239.344 122.077 240.384 124.167 240.124C125.473 239.864 126.779 239.603 128.085 239.083C139.579 235.441 150.813 231.802 162.307 228.161C171.971 225.04 181.636 221.919 191.561 219.058C197.308 217.238 203.317 215.675 209.064 214.375C214.811 213.074 220.559 212.035 226.306 211.515C232.836 210.735 235.971 213.336 236.232 219.838C236.493 222.698 236.231 225.819 235.709 228.679C234.925 233.361 233.619 238.303 232.574 242.984C232.312 244.544 232.051 246.107 232.051 247.667C232.573 254.689 230.746 261.192 227.089 267.174C226.044 268.734 225.522 270.294 224.477 271.855C223.693 273.155 223.171 274.715 222.388 276.015C219.775 279.916 215.595 281.737 212.199 284.338C209.325 286.159 205.668 285.12 202.533 284.079C197.831 282.519 193.129 280.958 188.949 278.878C183.464 276.017 177.979 272.895 172.755 269.254C169.621 266.913 167.53 263.531 165.179 260.41L164.396 258.851C162.045 254.69 161.522 254.428 157.082 255.988C150.813 258.069 144.543 260.15 138.274 262.49C133.833 264.051 129.391 265.613 124.95 267.174C121.032 268.474 118.681 271.074 118.419 275.494C118.419 277.055 117.899 278.617 117.899 280.178C117.376 290.061 116.591 299.945 116.33 310.088C116.069 321.011 115.025 331.934 113.981 342.857C113.197 351.7 113.197 360.803 112.674 369.645C111.891 379.269 111.106 389.152 110.322 398.775C110.061 402.937 109.799 406.839 109.277 411C108.754 417.502 108.232 424.263 107.97 430.765C107.709 436.487 107.449 442.209 107.71 447.671C107.971 453.132 106.405 457.554 102.226 461.196C101.964 461.456 101.701 461.715 101.44 461.975C97.2606 467.437 91.515 468.217 85.2462 467.957C82.3727 467.957 80.5432 466.656 78.9758 464.055C77.4087 461.195 76.1034 458.074 76.1034 454.693C76.1034 448.451 75.5805 442.209 76.8866 435.967C77.1476 434.927 77.1468 434.147 77.1468 433.107C77.9304 423.224 78.4524 413.34 79.236 403.456C80.0197 393.833 80.8044 384.47 81.588 374.847C81.8493 372.506 82.11 370.165 82.3712 367.824C82.8936 362.363 83.6789 356.901 83.9401 351.44C84.2013 341.297 85.5064 331.154 86.8125 321.271C87.0736 319.711 87.3353 318.15 87.3354 316.59C88.1191 302.545 88.9028 288.5 89.9476 274.456C90.7313 264.052 91.7762 253.387 92.5599 242.984C93.3435 233.621 93.8655 224.258 94.6491 214.895C96.2164 196.95 95.9563 179.003 95.695 161.057C95.695 158.457 95.6941 155.596 95.9552 152.996C96.4776 147.534 98.8285 143.374 104.052 141.033C106.926 139.472 109.8 137.91 113.458 137.65ZM388.001 217.496C394.009 213.335 400.801 212.815 407.592 214.116C409.42 214.376 410.204 215.675 410.988 216.975C412.816 220.617 414.645 224.259 416.735 227.9C418.302 231.28 418.303 235.182 416.475 238.303C414.907 240.904 413.078 243.246 411.51 245.846C410.466 247.146 409.16 248.447 408.115 250.007C406.287 252.608 407.071 254.169 409.944 254.429C412.556 254.429 414.906 254.17 417.518 254.17C419.346 253.91 420.914 253.647 422.742 253.387C426.73 252.911 430.621 252.436 434.533 251.96C434.174 255.538 433.977 259.443 433.977 263.532C433.977 269.146 434.348 274.415 435 278.966C433.344 279.204 431.696 279.44 430.059 279.657C425.618 280.177 421.438 280.697 416.998 281.217C415.169 281.477 411.249 281.997 408.898 282.517C398.189 284.858 387.218 284.079 376.508 284.079C370.239 284.079 365.274 281.218 361.355 276.277C360.572 275.496 360.05 274.195 359.266 273.414C357.96 271.854 356.393 271.334 354.565 272.114C344.116 276.015 333.144 278.357 322.695 282.258C316.948 284.599 310.94 286.42 305.716 290.061C302.32 292.661 298.401 293.701 293.961 293.441C288.475 293.181 283.774 289.799 281.946 284.597C280.378 279.916 279.595 275.234 280.639 270.293C281.684 265.612 282.469 261.19 283.775 256.509C285.341 251.048 282.468 249.228 278.027 250.268C267.84 252.609 257.128 253.648 247.724 259.11C245.896 260.15 243.284 260.93 240.933 261.19C236.493 261.45 234.141 258.85 233.88 254.429C233.619 251.048 234.926 248.186 236.755 245.585C239.106 242.464 241.718 239.602 244.068 236.482C247.464 232.321 252.166 229.722 257.39 228.161C261.569 227.121 265.749 225.819 269.928 225.299C284.034 223.218 298.142 221.397 312.509 219.576C313.554 219.317 314.86 219.317 315.904 219.317C323.479 219.318 325.831 225.04 325.047 230.241C324.786 232.061 324.001 233.621 323.478 235.181C322.172 238.562 322.174 241.425 324.264 244.546C325.308 245.846 325.57 247.406 326.353 248.706C327.921 251.827 328.965 252.348 332.884 251.828C333.406 251.828 334.191 251.567 334.713 251.307C342.549 248.966 350.387 246.366 358.223 244.025C362.663 242.725 365.798 239.864 368.149 236.223C373.373 228.42 380.425 222.698 388.001 217.496ZM110.322 47.6617C113.98 45.321 117.898 44.8008 122.077 45.0609C127.041 45.5811 129.915 48.9632 129.131 53.9047C128.608 57.0253 127.562 60.4053 126.256 63.5258C125.211 66.1267 123.906 68.4695 122.6 70.8102C121.817 72.3704 120.771 73.6703 119.465 74.9705C117.637 77.0512 115.546 78.8723 113.718 80.6929C108.494 85.6337 101.702 84.0736 99.3506 77.3123C99.0894 76.272 98.8287 75.4902 98.5675 74.4499C98.3062 71.5891 98.0455 68.7279 97.7843 66.6473C97.5232 60.1459 99.612 55.4646 104.052 52.0836C106.142 50.5231 108.233 49.2222 110.322 47.6617Z" fill="white"></path>
</svg></svg></g></g></svg></g></svg>